<?xml version="1.0" encoding="utf-8"?>
<!-- Generator: Adobe Illustrator 26.0.1, SVG Export Plug-In . SVG Version: 6.00 Build 0)  -->
<svg version="1.1" id="Layer_1" xmlns="http://www.w3.org/2000/svg" xmlns:xlink="http://www.w3.org/1999/xlink" x="0px" y="0px"
	 viewBox="0 0 913.5 129.2" style="enable-background:new 0 0 913.5 129.2;" xml:space="preserve">
<style type="text/css">
	.st0{fill:#FFFFFF;}
	.st1{fill-rule:evenodd;clip-rule:evenodd;fill:#FFFFFF;}
</style>
<g>
	<path class="st0" d="M151,48.5c-4-4.1-8.8-7.3-14.1-9.3c-11.8-4.3-24.8-4.3-36.6,0c-5.3,2-10.1,5.1-14,9.2c-4,4.1-7,9-8.9,14.4
		c-2.1,5.9-3.2,12.2-3.1,18.5c-0.1,6.2,1,12.4,3.1,18.3c1.9,5.4,5,10.3,9,14.4c4,4.1,8.8,7.3,14.1,9.4c5.8,2.3,12,3.4,18.3,3.3
		c6.3,0.1,12.5-1,18.3-3.2c5.3-2.1,10.1-5.2,14-9.3c4-4.1,7-9.1,9-14.5c2.1-5.9,3.2-12.1,3.2-18.3c0.1-6.2-1-12.4-3.1-18.3
		C158.1,57.5,155,52.6,151,48.5z M134.7,102.3c-1.9,2.4-4.3,4.4-7.1,5.7c-2.8,1.3-5.8,2-8.9,1.9c-4.2,0.1-8.3-1.1-11.7-3.5
		c-3.5-2.5-6.1-6-7.6-10c-1.9-4.9-2.7-10.1-2.6-15.3c-0.1-5.3,0.8-10.5,2.6-15.4c1.5-4,4.1-7.5,7.6-10.1c3.4-2.3,7.4-3.5,11.5-3.4
		c3.1-0.1,6.2,0.5,9,1.8c2.8,1.3,5.2,3.3,7.1,5.8c3.9,5,6,12.1,6,21.2S138.6,97.2,134.7,102.3L134.7,102.3z"/>
	<path class="st0" d="M228.3,39.4c-4.2-2.3-8.9-3.5-13.7-3.5c-4-0.2-8,1-11.2,3.5c-3.3,3-6.1,6.5-8.2,10.5c0.1-3.7-0.8-7.3-2.6-10.5
		c-0.9-1.2-2.1-2.1-3.5-2.7c-1.4-0.6-2.9-0.8-4.4-0.7c-7.3,0-10.9,5-10.9,15V113c-0.3,3.6,0.8,7.2,3,10.1c1,1.1,2.2,2,3.5,2.6
		c1.4,0.6,2.8,0.9,4.3,0.9c1.5,0,3-0.2,4.4-0.8c1.4-0.6,2.6-1.5,3.7-2.6c2.3-2.9,3.5-6.5,3.2-10.2V94.3c0-6.7,0.2-12.3,0.6-17
		c0.3-4.1,1.1-8.1,2.4-11.9c0.9-2.9,2.5-5.6,4.8-7.6c2.3-1.8,5.1-2.7,8-2.6c2.8,0.1,5.6,0.6,8.3,1.5c1.9,0.7,3.9,1.2,5.9,1.5
		c2.3,0,4.5-1,6.1-2.6c0.9-0.9,1.7-1.9,2.2-3.1c0.5-1.2,0.8-2.4,0.7-3.7C235,44.9,232.8,41.7,228.3,39.4z"/>
	<path class="st0" d="M298.1,108c-1.8,0.1-3.5,0.3-5.2,0.7c-1.7,0.4-3.5,0.6-5.2,0.7c-0.9,0.1-1.9,0-2.8-0.3
		c-0.9-0.3-1.7-0.8-2.4-1.5c-1.1-1.3-1.8-2.9-2-4.5c-0.3-2.7-0.4-5.3-0.4-8V53.9h4.2c3.5,0.2,7-0.4,10.2-1.8
		c1.2-0.6,2.1-1.5,2.7-2.6c0.6-1.1,0.9-2.4,0.8-3.7c0-1.1-0.2-2.2-0.6-3.1c-0.4-1-1.1-1.9-1.9-2.6c-2.1-1.6-4.6-2.3-7.2-2.1h-8.2
		V22.7c0.1-3-0.1-5.9-0.6-8.8c-0.4-2-1.4-3.8-2.9-5.2c-1.7-1.6-3.9-2.7-6.3-3c-2.3-0.3-4.7,0.2-6.8,1.3c-1.6,0.9-2.8,2.2-3.8,3.7
		c-0.9,1.6-1.5,3.4-1.6,5.2c-0.2,2-0.3,4.9-0.3,8.4v13.4h-2.5c-2.8-0.2-5.6,0.6-7.8,2.3c-0.8,0.7-1.5,1.6-2,2.5
		c-0.5,1-0.7,2.1-0.7,3.2c0,1.1,0.2,2.2,0.6,3.2c0.5,1,1.1,1.9,2,2.6c2.1,1.7,4.7,2.5,7.4,2.3h2.9v42.7c-0.1,5.6,0.4,11.1,1.7,16.6
		c1,4,3.5,7.6,7.1,9.8c4.8,2.6,10.3,3.9,15.8,3.5c5.7,0.3,11.5-0.7,16.8-2.8c1.7-0.6,3.2-1.7,4.2-3.2c1-1.5,1.6-3.2,1.7-5
		c0-1-0.2-2-0.5-2.9c-0.4-0.9-0.9-1.8-1.6-2.5c-0.6-0.7-1.4-1.2-2.2-1.6C300,108.2,299,108,298.1,108z"/>
	<path class="st0" d="M390,36c-1.5,0-3,0.2-4.4,0.8s-2.6,1.5-3.7,2.6c-2.3,2.8-3.4,6.3-3.1,9.9v27c0,10.7-0.6,17.6-2,20.7
		c-1.5,3.6-4,6.6-7.2,8.7c-3.1,2.2-6.8,3.4-10.6,3.4c-3.3,0.2-6.6-0.9-9.2-3c-2.3-2.2-3.9-5.1-4.6-8.2c-1-4.3-1.4-8.7-1.3-13.1V49.2
		c0.3-3.6-0.8-7.1-3.1-9.9c-1.1-1.1-2.3-2-3.8-2.5c-1.4-0.6-2.9-0.8-4.5-0.7c-1.5,0-3,0.2-4.4,0.8c-1.4,0.6-2.6,1.4-3.7,2.5
		c-2.2,2.8-3.3,6.4-3,10v44.1c0,8.9,1.4,15.7,4.2,20.4c2.4,4,5.8,7.2,9.9,9.2c4.5,2.3,9.5,3.4,14.5,3.3c4,0.1,8.1-0.5,11.9-1.7
		c3.5-1.2,6.7-2.9,9.6-5.2c3.1-2.4,6-5.2,8.4-8.3v2.9c-0.2,3.4,0.8,6.7,3,9.3c1,1,2.1,1.8,3.4,2.4c1.3,0.6,2.7,0.8,4.1,0.8
		c1.4,0,2.8-0.3,4.1-0.8c1.3-0.6,2.4-1.4,3.4-2.4c2.2-2.7,3.2-6.1,3-9.6V49.2c0.3-3.6-0.7-7.1-2.9-10c-1-1.1-2.3-1.9-3.7-2.5
		C393,36.2,391.5,35.9,390,36z"/>
	<path class="st0" d="M489.9,50.6c-2.3-4.6-5.9-8.4-10.5-10.9c-4.8-2.6-10.2-3.9-15.7-3.8c-5.6-0.1-11.1,1.1-16,3.6
		c-5.1,2.8-9.5,6.7-12.8,11.4v-2.6c0.1-2.3-0.4-4.7-1.4-6.8c-0.8-1.7-2.1-3.2-3.8-4.2c-1.6-0.9-3.4-1.4-5.2-1.4
		c-1.4-0.1-2.8,0.2-4.2,0.7c-1.3,0.5-2.5,1.4-3.5,2.4c-2,2.7-3,6.1-2.8,9.5V113c-0.3,3.6,0.8,7.2,3.1,10c1,1.1,2.2,2,3.5,2.6
		s2.8,0.9,4.3,0.9c1.5,0.1,3-0.2,4.4-0.8c1.4-0.6,2.7-1.5,3.7-2.6c2.3-2.9,3.5-6.5,3.2-10.2V85c-0.3-6.3,0.2-12.5,1.6-18.6
		c1.4-3.9,3.9-7.3,7.2-9.8c3.1-2.3,6.9-3.6,10.8-3.6c6.1,0,10.2,2,12.2,5.9c2.3,5.3,3.3,11.1,3,16.9v37.2c-0.2,3.6,0.9,7.2,3.1,10
		c1,1.1,2.2,2,3.6,2.6c1.4,0.6,2.9,0.9,4.3,0.9c1.5,0,3-0.3,4.3-0.9c1.4-0.6,2.6-1.5,3.6-2.6c2.2-2.9,3.3-6.5,3.1-10.1V71.4
		c0-4-0.2-8.1-0.6-12.1C492.2,56.3,491.2,53.3,489.9,50.6z"/>
	<path class="st0" d="M586,97.8c-1.5-1.3-3.5-2-5.5-2c-1.8-0.1-3.5,0.4-4.9,1.5c-2.8,2.6-5,4.7-6.8,6.2c-1.8,1.6-3.7,3.1-5.7,4.4
		c-2,1.3-4.1,2.3-6.4,2.9c-2.4,0.6-4.9,1-7.3,0.9c-3.9,0.1-7.8-1-11.1-3.1c-3.3-2.1-6-5.1-7.7-8.6c-2-4.1-3.1-8.6-3.1-13.2H571
		c4.7,0.2,9.3-0.7,13.6-2.6c3.2-1.6,4.8-5.3,4.8-10.9c0-6.2-1.6-12.3-4.6-17.7c-3.2-6-8.1-10.9-14-14.3c-6.8-3.8-14.6-5.7-22.4-5.5
		c-6.2-0.1-12.4,1-18.3,3.3c-5.3,2-10,5.2-13.9,9.3c-3.8,4.2-6.8,9.1-8.6,14.5c-2,5.9-3,12-3,18.2c0,13.9,4,25,11.9,33.3
		c8,8.2,19.1,12.3,33.3,12.2c5.7,0.1,11.3-0.7,16.7-2.4c4.3-1.4,8.4-3.5,12-6.2c2.8-2.1,5.3-4.8,7.1-7.8c1.4-2.2,2.2-4.6,2.3-7.2
		c0-1-0.1-1.9-0.5-2.8C587.2,99.2,586.7,98.4,586,97.8z M534,57c1.7-1.9,3.9-3.4,6.2-4.4c2.4-1,4.9-1.5,7.5-1.4
		c2.6-0.1,5.2,0.3,7.7,1.3c2.4,1,4.6,2.5,6.4,4.4c3.6,3.8,5.6,9.5,6.2,17.1h-40.5C527.7,67.8,530,61.8,534,57z"/>
	<path class="st0" d="M44.2,73.4l-17-13.5c-0.2-0.1-0.4-0.2-0.6-0.3v55.7c-0.3,3.6,0.8,7.2,3.1,10.1c1,1.1,2.2,2,3.5,2.6
		c1.4,0.6,2.8,0.9,4.3,0.9c1.5,0.1,3.1-0.2,4.5-0.8c1.4-0.6,2.7-1.5,3.7-2.6c2.3-2.8,3.4-6.4,3.1-10.1V72.1l-3,1.5
		c-0.3,0.1-0.6,0.2-0.9,0.2C44.7,73.7,44.4,73.6,44.2,73.4z"/>
	<path class="st0" d="M30.2,31.4l14.1,12.9c0.2,0.2,0.5,0.3,0.9,0.4c0.3,0,0.6,0,0.9-0.1l2.6-1.4v-13c-0.2-3.5,0.4-6.9,1.7-10.2
		c1.1-2.4,3.7-3.6,7.8-3.6c1.8,0,3.6,0.2,5.4,0.5c1.5,0.3,3,0.4,4.5,0.5c0.9,0,1.8-0.2,2.6-0.6c0.8-0.4,1.6-0.9,2.2-1.6
		c1.3-1.4,2-3.3,2-5.2c0-6.4-6.5-9.5-19.6-9.5C49.4,0.2,43.5,1.1,38,3.2c-4.1,1.7-7.3,4.9-9.1,9c-2,5.3-2.9,11-2.6,16.6v3.8l1.7-1.3
		c0.1-0.1,0.3-0.3,0.5-0.3c0.2-0.1,0.4-0.1,0.6-0.1c0.2,0,0.4,0.1,0.6,0.1C29.9,31.2,30.1,31.3,30.2,31.4z"/>
	<path class="st0" d="M71.1,36.4L48.8,47.9l-2.6,1.4c-0.3,0.2-0.6,0.2-0.9,0.2c-0.3,0-0.6-0.2-0.8-0.4L30.2,36.1
		c-0.3-0.2-0.6-0.4-1-0.4c-0.4,0-0.7,0.1-1,0.2l-1.7,1.3L0,56.3c-0.3,0.3-0.6,0.6-0.6,1.1c-0.1,0.4,0.1,0.8,0.3,1.2
		c0.2,0.2,0.4,0.4,0.7,0.5c0.3,0.1,0.6,0.1,0.8,0.1l24.6-4.2c0.2,0,0.5,0,0.7,0c0.2,0.1,0.4,0.2,0.6,0.3l17.1,13.6
		c0.2,0.2,0.5,0.3,0.8,0.3c0.3,0,0.6,0,0.9-0.2l3-1.5l23.8-12.2c0.3-0.1,0.5-0.3,0.6-0.6c0.2-0.2,0.2-0.5,0.2-0.8V37.8
		c0-0.4-0.2-0.8-0.5-1.1c-0.3-0.3-0.7-0.5-1.1-0.5C71.7,36.2,71.4,36.3,71.1,36.4z"/>
	<path class="st1" d="M740.8,36.7c2.5,0,4.7,0.8,6.4,2.4l0.3,0.3c1.8,1.8,2.7,4.1,2.7,6.8v71.9l0,0.5c-0.1,2.4-1,4.4-2.7,6.1
		c-1.8,1.8-4.1,2.7-6.8,2.7c-2.4,0-4.5-0.8-6.3-2.4l-0.3-0.3c-1.8-1.8-2.7-4-2.7-6.6V46.2c0-2.7,0.9-5,2.7-6.8
		C736,37.6,738.3,36.7,740.8,36.7z M740.5,125.6l0.4,0c0.1,0,0.3,0,0.4,0c-0.1,0-0.3,0-0.4,0C740.7,125.6,740.6,125.6,740.5,125.6
		C740.4,125.6,740.4,125.6,740.5,125.6z M746.4,123.5c-0.1,0.1-0.3,0.2-0.4,0.4c0,0,0.1-0.1,0.1-0.1L746.4,123.5z M734.8,122.7
		c0.1,0.1,0.1,0.2,0.2,0.2C734.9,122.8,734.8,122.7,734.8,122.7L734.8,122.7z"/>
	<path class="st1" d="M809.2,35.9c6.7,0,12.4,1.6,17.2,4.8c4.7,3.1,8.4,7.3,10.8,12.6c2.5,5.2,3.7,10.9,3.7,17.2v47.6l0,0.5
		c-0.1,2.4-1.1,4.5-2.8,6.1l0,0c-1.8,1.8-4,2.7-6.6,2.7c-2.4,0-4.5-0.8-6.3-2.4l-0.3-0.3c-1.8-1.8-2.7-4-2.7-6.6V72.2
		c0-5.7-1.2-10.1-3.5-13.2l-0.5-0.6l0,0c-2.3-3.1-6.4-4.8-12.7-4.8c-5.7,0-10.6,1.5-14.7,4.5c-4.2,3-7.8,6.5-11,10.4v49.7l0,0.5
		c-0.1,2.4-1.1,4.5-2.9,6.1l0,0c-1.8,1.8-4,2.7-6.6,2.7c-2.4,0-4.5-0.8-6.3-2.4l-0.3-0.3c-1.8-1.8-2.7-4-2.7-6.6V46.2
		c0-2.7,0.9-5,2.7-6.8c1.8-1.8,4-2.7,6.6-2.7c2.6,0,4.8,0.9,6.6,2.7c1.9,1.8,2.9,4.1,2.9,6.8v2.6c3-2.8,6.3-5.4,9.9-7.8
		C794.9,37.5,801.5,35.9,809.2,35.9z M763.1,43.7c-0.2,0.8-0.3,1.6-0.3,2.4v71.9l0,0.4c0.1,2,0.8,3.6,2.2,5c1.4,1.4,3,2.1,5,2.2
		l0.4,0c0.9,0,1.8-0.1,2.6-0.4l0,0c-0.8,0.3-1.7,0.4-2.6,0.4c-2.1,0-3.9-0.7-5.4-2.2c-1.5-1.5-2.2-3.2-2.2-5.4V46.2
		C762.8,45.3,762.9,44.5,763.1,43.7z M805.5,51.7c-0.7,0-1.4,0-2.1,0.1C804.1,51.7,804.8,51.7,805.5,51.7c6.6,0,11.3,1.8,14.1,5.5
		c2.9,3.6,4.4,8.6,4.4,14.9v45.9l0,0.4c0.1,2,0.8,3.6,2.2,5c1.4,1.4,3,2.1,5,2.2l0.4,0c1.5,0,2.8-0.4,4-1.1c-1.2,0.7-2.5,1.1-4,1.1
		c-2.1,0-3.9-0.7-5.4-2.2c-1.5-1.5-2.2-3.2-2.2-5.4V72.2c0-6.4-1.5-11.3-4.4-14.9C816.8,53.5,812.1,51.7,805.5,51.7z M774.7,124.3
		c0,0,0.1-0.1,0.1-0.1l0,0C774.8,124.2,774.7,124.3,774.7,124.3z M836.6,123.7c-0.2,0.2-0.4,0.3-0.6,0.5
		C836.2,124,836.4,123.9,836.6,123.7L836.6,123.7z M778,53L778,53c0.4-0.4,0.8-0.9,1.2-1.3C778.8,52.2,778.4,52.6,778,53z
		 M790.6,42.5l-0.9,0.6c0,0,0,0-0.1,0C789.9,42.9,790.3,42.7,790.6,42.5L790.6,42.5z M763.7,42.3C763.6,42.4,763.6,42.4,763.7,42.3
		c0,0,0.1-0.1,0.1-0.2L763.7,42.3z M766.5,39.4c-0.6,0.3-1.1,0.7-1.5,1.2l-0.3,0.3c0.1-0.1,0.2-0.2,0.3-0.3
		C765.4,40.2,765.9,39.8,766.5,39.4z"/>
	<path class="st1" d="M712.3,36.7c2.6,0,4.8,0.9,6.6,2.7c1.8,1.8,2.7,4,2.7,6.6c0,1.1-0.2,2.2-0.6,3.4l0,0l-23.8,69.7l0,0
		c-0.8,2.2-2.2,4.2-4.2,5.8l0,0l0,0c-2.1,1.6-4.5,2.4-7.1,2.4c-2.6,0-5-0.8-7.1-2.4l0,0l0,0c-1.9-1.5-3.3-3.4-4.2-5.5l-0.2-0.4
		l0-0.1l-16.1-50.3L642,119l0,0l0,0c-0.9,2.3-2.4,4.3-4.4,5.9l0,0l0,0c-2.1,1.6-4.5,2.4-7.1,2.4c-2.4,0-4.7-0.7-6.7-2.1l-0.4-0.3
		l0,0l0,0c-1.9-1.5-3.3-3.3-4.1-5.4l-0.2-0.4l0,0l-23.8-69.7l0,0c-0.4-1.2-0.6-2.3-0.6-3.4c0-2.6,0.9-4.8,2.7-6.6
		c1.8-1.8,4-2.7,6.6-2.7c1.8,0,3.6,0.5,5.1,1.4c1.6,0.9,2.7,2.3,3.4,4l0.1,0.4l0,0l18,59.1L648.3,44l0,0c0.7-2.1,1.9-3.9,3.6-5.2
		l0,0c1.9-1.3,3.9-2,6.2-2c2.1,0,4.1,0.6,5.9,1.8l0.4,0.2c1.9,1.3,3.1,3.1,3.7,5.3l17.8,57.6l18-59.1l0,0c0.6-1.9,1.8-3.3,3.5-4.3
		C708.8,37.2,710.5,36.7,712.3,36.7z M632.4,125.5c-0.6,0.1-1.2,0.2-1.9,0.2c-0.2,0-0.4,0-0.5,0c0,0,0.1,0,0.1,0l0.4,0
		c0.9,0,1.7-0.1,2.5-0.3L632.4,125.5z M685.4,125.6l0.4,0c-0.2,0-0.4,0-0.5,0C685.3,125.6,685.3,125.6,685.4,125.6z M636.5,123.6
		c-0.1,0.1-0.1,0.1-0.2,0.2C636.4,123.7,636.4,123.7,636.5,123.6C636.5,123.6,636.6,123.6,636.5,123.6
		C636.6,123.6,636.5,123.6,636.5,123.6z M596.9,48.8l23.8,69.7c0.7,1.9,1.9,3.6,3.7,5c0,0,0.1,0.1,0.1,0.1c0,0-0.1-0.1-0.1-0.1
		c-1.8-1.5-3-3.1-3.7-5L596.9,48.8c-0.1-0.2-0.2-0.5-0.2-0.7L596.9,48.8z M658.1,62.9l17.8,55.5L658.1,62.9L658.1,62.9z
		 M695.3,119.1c0,0,0-0.1,0-0.1l0.1-0.3C695.4,118.8,695.4,118.9,695.3,119.1z M650.9,42.4c-0.4,0.6-0.7,1.4-1,2.1l-19.4,63l0,0
		l19.4-63C650.2,43.7,650.5,43,650.9,42.4z M596.4,46l0,0.3c0,0,0,0.1,0,0.1C596.4,46.3,596.4,46.1,596.4,46z M596.5,44.8
		c0,0.1,0,0.1,0,0.2c0-0.2,0-0.4,0.1-0.6L596.5,44.8z M600.1,39.5c-0.5,0.3-1,0.7-1.4,1.1c-0.3,0.3-0.6,0.6-0.8,1
		c0.2-0.3,0.5-0.7,0.8-1C599.1,40.2,599.5,39.8,600.1,39.5z M663.7,40.4C663.7,40.4,663.6,40.4,663.7,40.4l-0.3-0.2
		C663.5,40.2,663.6,40.3,663.7,40.4z M707.6,39.9C707.6,40,707.6,40,707.6,39.9c0.1,0,0.2-0.1,0.3-0.2L707.6,39.9z"/>
	<path class="st1" d="M741.5,6.3c2.6,0,5,0.9,6.9,2.7l0.4,0.4c2,2,3,4.5,3,7.3v0.7l0,0.5c-0.1,2.6-1.1,4.9-3,6.7c-2,2-4.5,3-7.3,3
		h-1c-2.6,0-5-0.9-6.9-2.7l-0.4-0.4c-2-2-3-4.5-3-7.3v-0.7c0-2.8,1-5.3,3-7.3c2-2,4.5-3,7.3-3H741.5z M740.1,25.8l0.4,0
		c-0.2,0-0.4,0-0.6,0C740,25.8,740,25.8,740.1,25.8z M741.5,25.8l0.4,0c0.1,0,0.1,0,0.2,0C741.9,25.8,741.7,25.8,741.5,25.8z
		 M748.8,21.8c-0.3,0.5-0.7,1-1.2,1.5c-0.2,0.2-0.4,0.4-0.6,0.6c0.1-0.1,0.2-0.2,0.3-0.3c0.1-0.1,0.2-0.2,0.3-0.3
		C748,22.8,748.4,22.3,748.8,21.8z M732,15.7c0,0.1,0,0.1,0,0.2C732,15.8,732,15.8,732,15.7L732,15.7z"/>
	<path class="st0" d="M910.2,87.8c-2.5-3.4-5.7-6.1-9.7-8c-3.8-1.8-7.9-3.3-12.1-4.3c-4.1-1-8-1.9-11.7-2.8c-3.5-0.9-6.3-2-8.4-3.4
		c-1.8-1.2-2.6-2.7-2.6-4.9c0-2.6,1.3-4.8,4-6.6c2.9-2,7.1-2.9,12.6-2.9c3.4,0,6.6,0.3,9.5,0.8c2.9,0.5,5.7,1.2,8.2,2.1
		c0.4,0.1,0.8,0.3,1.2,0.3c0.4,0.1,0.9,0.1,1.5,0.1c2.3,0,4.3-0.8,5.9-2.5c1.6-1.7,2.4-3.6,2.4-5.9c0-1.6-0.5-3.1-1.5-4.7
		c-1-1.6-2.6-2.7-4.4-3.3c-3.4-1.2-7.1-2.2-11.1-3c-4-0.8-8.3-1.2-12.8-1.2c-10.8,0-19.1,2.6-24.7,7.8c-5.6,5.2-8.5,11.9-8.5,19.8
		c0,5.3,1.3,9.7,3.8,13.1c2.5,3.3,5.7,6,9.7,7.9c3.8,1.8,7.8,3.3,12,4.4c4.1,1,7.9,2,11.6,2.9c3.5,0.9,6.4,1.9,8.5,3.2
		c1.7,1,2.5,2.2,2.5,3.9c0,3.1-1.1,5.3-3.5,7c-2.5,1.8-6.7,2.7-12.5,2.7c-4.5,0-8.5-0.5-11.8-1.4c-3.4-1-6.5-2.1-9.3-3.3
		c-1.2-0.5-2.4-0.8-3.6-0.8c-2.4,0-4.3,0.9-5.9,2.7c-1.5,1.7-2.2,3.6-2.2,5.7c0,2.9,1.2,5.3,3.5,6.9l0.1,0.1l0.1,0.1
		c4.2,2.3,8.8,4.2,13.6,5.5c4.9,1.3,10.4,2,16.4,2c10.7,0,18.9-2.5,24.4-7.6c5.6-5.1,8.4-11.3,8.4-18.4
		C914.1,96,912.8,91.3,910.2,87.8L910.2,87.8L910.2,87.8z"/>
</g>
</svg>
